<svg width="0" height="0" class="hidden">
  <symbol xmlns="http://www.w3.org/2000/svg" viewBox="0 0 512 512" id="lights">
    <path d="M256 108.936c-81.091 0-147.064 65.973-147.064 147.064S174.909 403.064 256 403.064 403.064 337.091 403.064 256 337.091 108.936 256 108.936zm0 261.447c-63.071 0-114.383-51.312-114.383-114.383S192.929 141.617 256 141.617 370.383 192.929 370.383 256 319.071 370.383 256 370.383zm0-286.675c9.024 0 16.34-7.316 16.34-16.34V16.34C272.34 7.316 265.024 0 256 0c-9.024 0-16.34 7.316-16.34 16.34v51.027c0 9.024 7.316 16.341 16.34 16.341zm0 344.584c-9.024 0-16.34 7.316-16.34 16.34v51.027c0 9.024 7.316 16.34 16.34 16.34 9.024 0 16.34-7.316 16.34-16.34v-51.027c0-9.023-7.316-16.34-16.34-16.34zM111.062 134.171c6.38 6.381 16.727 6.381 23.109 0 6.381-6.38 6.381-16.727 0-23.109L98.089 74.981c-6.38-6.381-16.727-6.381-23.109 0-6.381 6.38-6.381 16.727 0 23.109l36.082 36.081zm289.876 243.658c-6.38-6.381-16.727-6.38-23.109 0-6.381 6.38-6.381 16.727 0 23.109l36.081 36.082c6.38 6.382 16.727 6.382 23.109 0 6.382-6.38 6.382-16.727 0-23.109l-36.081-36.082zM83.708 256c0-9.024-7.316-16.34-16.34-16.34H16.34C7.316 239.66 0 246.976 0 256c0 9.024 7.316 16.34 16.34 16.34h51.027c9.024 0 16.341-7.316 16.341-16.34zm411.952-16.34h-51.027c-9.024 0-16.34 7.316-16.34 16.34 0 9.024 7.316 16.34 16.34 16.34h51.027c9.024 0 16.34-7.316 16.34-16.34 0-9.024-7.316-16.34-16.34-16.34zM111.062 377.829l-36.081 36.082c-6.381 6.382-6.381 16.727 0 23.109 6.38 6.382 16.727 6.383 23.109 0l36.081-36.082c6.381-6.381 6.381-16.727 0-23.109-6.381-6.382-16.728-6.382-23.109 0zm289.876-243.658l36.081-36.082c6.382-6.381 6.382-16.727 0-23.109-6.38-6.381-16.727-6.381-23.109 0l-36.081 36.082c-6.381 6.381-6.381 16.727 0 23.109 6.381 6.381 16.728 6.382 23.109 0z"></path>
  </symbol>
  <symbol xmlns="http://www.w3.org/2000/svg" viewBox="0 0 512.001 512.001" id="link">
    <path d="M124.216 512.001c-32.708.001-63.596-12.96-87.427-36.79C11.836 450.257-1.198 417.562.086 383.147c1.327-35.543 17.384-69.686 46.436-98.738l52.308-52.521c7.794-7.827 20.457-7.853 28.284-.058 7.826 7.794 7.853 20.458.058 28.284l-52.336 52.551c-42.411 42.411-46.413 97.61-9.761 134.262 36.653 36.655 91.852 32.652 134.232-9.732l71.887-71.887c21.789-21.788 33.805-46.667 34.748-71.945.865-23.17-8.019-45.291-25.015-62.287-5.695-5.694-11.996-10.526-18.729-14.361-9.598-5.467-12.947-17.68-7.48-27.277 5.468-9.598 17.681-12.946 27.277-7.48 9.838 5.604 18.995 12.614 27.217 20.835 24.953 24.953 37.987 57.648 36.703 92.063-1.327 35.543-17.384 69.687-46.436 98.738l-71.887 71.887c-29.053 29.052-63.195 45.108-98.738 46.436-1.548.055-3.097.084-4.638.084zm133.068-189.436c5.467-9.598 2.117-21.811-7.48-27.277-6.733-3.835-13.035-8.667-18.729-14.36-36.652-36.653-32.65-91.852 9.732-134.234l71.887-71.886c42.383-42.381 97.581-46.384 134.232-9.732 36.652 36.652 32.65 91.851-9.761 134.262l-52.336 52.551c-7.795 7.826-7.769 20.49.058 28.284 7.826 7.795 20.489 7.767 28.284-.058l52.308-52.522c29.052-29.052 45.108-63.195 46.436-98.737 1.284-34.415-11.75-67.111-36.703-92.064C450.258 11.838 417.546-1.194 383.148.088c-35.543 1.327-69.686 17.384-98.737 46.436l-71.888 71.886c-29.052 29.052-45.108 63.195-46.436 98.737-1.284 34.415 11.75 67.111 36.703 92.065 8.221 8.22 17.378 15.229 27.217 20.834a19.91 19.91 0 009.88 2.625c6.953-.001 13.709-3.633 17.397-10.106z"></path>
  </symbol>
  <symbol xmlns="http://www.w3.org/2000/svg" viewBox="0 0 384.97 384.97" id="menu">
    <path d="M372.939 120.303H12.03c-6.641 0-12.03-5.39-12.03-12.03 0-6.641 5.39-12.03 12.03-12.03h360.909c6.641 0 12.03 5.39 12.03 12.03s-5.39 12.03-12.03 12.03zM12.03 180.455h360.909c6.641 0 12.03 5.39 12.03 12.03s-5.39 12.03-12.03 12.03H12.03c-6.641 0-12.03-5.39-12.03-12.03s5.389-12.03 12.03-12.03zm0 84.212h240.606c6.641 0 12.03 5.39 12.03 12.03 0 6.641-5.39 12.03-12.03 12.03H12.03c-6.641 0-12.03-5.39-12.03-12.03-.001-6.641 5.389-12.03 12.03-12.03z" data-original="#000000" xmlns="http://www.w3.org/2000/svg"></path>
  </symbol>
  <symbol xmlns="http://www.w3.org/2000/svg" viewBox="0 0 512 512" id="minimize">
    <path d="M298.667 42.667C310.449 42.667 320 52.218 320 64v97.83L475.582 6.248c8.331-8.331 21.839-8.331 30.17 0 8.331 8.331 8.331 21.839 0 30.17L350.17 192H448c11.782 0 21.333 9.551 21.333 21.333 0 11.782-9.551 21.333-21.333 21.333H298.667l-.021-.001a21.653 21.653 0 01-2.084-.105c-.318-.031-.627-.091-.94-.136-.375-.054-.75-.098-1.122-.171-.359-.071-.708-.17-1.061-.259-.322-.081-.645-.151-.964-.248-.346-.105-.68-.234-1.018-.356-.318-.114-.639-.219-.953-.349-.316-.131-.618-.284-.926-.43-.323-.152-.649-.296-.966-.465-.295-.158-.575-.338-.861-.509-.311-.186-.626-.361-.929-.564-.316-.211-.613-.447-.917-.674-.253-.19-.513-.365-.759-.568a21.422 21.422 0 01-2.977-2.977c-.202-.246-.378-.506-.568-.759-.228-.304-.463-.601-.674-.917-.203-.303-.379-.618-.564-.929-.171-.286-.351-.566-.509-.861-.169-.317-.313-.643-.465-.966-.145-.308-.299-.611-.43-.926-.13-.314-.235-.635-.349-.953-.122-.338-.251-.672-.356-1.018-.096-.318-.167-.642-.248-.964-.089-.353-.188-.701-.259-1.061-.074-.372-.118-.748-.171-1.122-.045-.314-.104-.622-.136-.94-.069-.7-.106-1.402-.106-2.105V64c-.001-11.782 9.551-21.333 21.333-21.333zM6.248 475.582L161.83 320H64c-11.782 0-21.333-9.551-21.333-21.333 0-11.782 9.551-21.333 21.333-21.333h149.333c.703 0 1.405.037 2.105.106.318.031.627.091.94.136.375.054.75.098 1.122.171.359.071.708.17 1.061.259.322.081.645.151.964.248.346.105.68.234 1.018.356.318.114.639.219.953.349.316.131.618.284.926.43.323.152.649.296.966.465.295.158.575.338.861.509.311.186.626.361.929.564.316.211.613.447.917.674.253.19.513.365.759.568a21.422 21.422 0 012.977 2.977c.202.246.378.506.568.759.228.304.463.601.674.917.203.303.379.618.564.929.171.286.351.566.509.861.169.317.313.643.465.966.145.308.299.611.43.926.13.314.235.635.349.953.122.338.251.672.356 1.018.096.318.167.642.248.964.089.353.188.701.259 1.061.074.372.118.748.171 1.122.045.314.104.622.136.94a21.336 21.336 0 01.105 2.084l.001.021V448c0 11.782-9.551 21.333-21.333 21.333-11.782 0-21.333-9.551-21.333-21.333v-97.83L36.418 505.752c-8.331 8.331-21.839 8.331-30.17 0-8.331-8.332-8.331-21.839 0-30.17z" data-original="#000000" xmlns="http://www.w3.org/2000/svg"></path>
  </symbol>
  <symbol xmlns="http://www.w3.org/2000/svg" viewBox="0 0 512 512" id="night-mode">
    <path d="M497.139 291.079a7.955 7.955 0 00-9.837 2.9 206.2 206.2 0 01-173.135 90.951c-55.12-.455-106.666-22.053-145.144-60.814a203.685 203.685 0 015.723-292.736 8.012 8.012 0 00-8.44-13.3 248.158 248.158 0 00-113.071 90.186 246.145 246.145 0 0030.28 314.794c46.813 46.069 109.046 71.44 175.232 71.44a250.283 250.283 0 00157.1-55.5 247.629 247.629 0 0085.963-138.863 7.909 7.909 0 00-4.671-9.058zm-88.847 138.6A238.246 238.246 0 01258.747 482.5c-63.018 0-122.261-24.147-166.815-67.994a234.141 234.141 0 01-28.811-299.437 236.089 236.089 0 0188.738-77.364 215.841 215.841 0 008.648 294.862c40.721 41.021 95.257 63.878 153.56 64.36.617 0 1.226.008 1.842.008a218.123 218.123 0 00168.911-79.57 236.207 236.207 0 01-76.528 112.31z"></path>
  </symbol>
  <symbol xmlns="http://www.w3.org/2000/svg" viewBox="0 0 50 50" id="open">
    <path d="M36 3h9.586L28.293 20.293l1.414 1.414L47 4.414V14h2V1H36z"></path>
    <path d="M42 16h-2v31H3V10h31V8H1v41h41z"></path>
  </symbol>
  <symbol xmlns="http://www.w3.org/2000/svg" viewBox="0 0 515.555 515.555" id="options">
    <path d="M496.679 212.208c25.167 25.167 25.167 65.971 0 91.138s-65.971 25.167-91.138 0-25.167-65.971 0-91.138 65.971-25.167 91.138 0m-193.332 0c25.167 25.167 25.167 65.971 0 91.138s-65.971 25.167-91.138 0-25.167-65.971 0-91.138 65.971-25.167 91.138 0m-193.333 0c25.167 25.167 25.167 65.971 0 91.138s-65.971 25.167-91.138 0-25.167-65.971 0-91.138 65.971-25.167 91.138 0"></path>
  </symbol>
  <symbol xmlns="http://www.w3.org/2000/svg" viewBox="0 0 512 512" id="paste">
    <path d="M466.611 241.22l-65.741-61.039c.043-.341.196-.631.196-.981V42.667a8.53 8.53 0 00-8.533-8.533H332.8a8.53 8.53 0 00-8.533-8.533h-34.133V8.533A8.532 8.532 0 00281.6 0H162.133a8.53 8.53 0 00-8.533 8.533V25.6h-34.133a8.53 8.53 0 00-8.533 8.533H51.2a8.53 8.53 0 00-8.533 8.533v401.075a8.527 8.527 0 008.516 8.533l93.884.196v50.995c0 2.27.896 4.437 2.5 6.033a8.56 8.56 0 006.033 2.5h307.2a8.53 8.53 0 008.533-8.533v-256c0-2.371-.99-4.64-2.722-6.245zm-27.545-2.287h-89.199V156.1l89.199 82.833zM128 42.667h34.133a8.53 8.53 0 008.533-8.533V17.067h102.4v17.067a8.53 8.53 0 008.533 8.533h34.133v25.6H128v-25.6zm17.067 93.866c0 .128 0 .256.009.384l-.009 298.479-85.333-.179V51.2h51.2v25.6a8.53 8.53 0 008.533 8.533h204.8A8.53 8.53 0 00332.8 76.8V51.2H384v113.306l-36.855-34.227a8.582 8.582 0 00-5.811-2.278H153.6a8.53 8.53 0 00-8.533 8.532zm307.2 358.4H162.133l.009-349.867H332.8v102.4a8.53 8.53 0 008.533 8.533h110.933v238.934z"></path>
  </symbol>
  <symbol xmlns="http://www.w3.org/2000/svg" viewBox="0 0 512 512" id="plus">
    <path d="M492 236H276V20c0-11.046-8.954-20-20-20s-20 8.954-20 20v216H20c-11.046 0-20 8.954-20 20s8.954 20 20 20h216v216c0 11.046 8.954 20 20 20s20-8.954 20-20V276h216c11.046 0 20-8.954 20-20s-8.954-20-20-20z"></path>
  </symbol>
  <symbol version="1.0" xmlns="http://www.w3.org/2000/svg" viewBox="0 0 337 373" id="redo">
    <path d="M261 49.2c-5.8 2.1-6 2.9-6 32.3v27l-18.8-18.8c-18.9-19-25.5-24.3-37.2-30.2-14.3-7.1-27-10-44-9.9-11.2.1-15.2.5-23.5 2.7-30.1 8-54 28.7-66.5 57.7-5.5 12.6-7.5 22.8-7.5 38 .1 14.6 2 24.3 7.2 37 7.1 17 9.4 19.6 74.2 84.5 58.4 58.6 60.4 60.5 64.1 60.5 5.1 0 9-3.9 9-8.8 0-3.4-3.2-6.8-59.8-63.6-37.8-37.9-61.3-62.3-63.7-66-5.4-8.3-9.4-18.4-11.6-29-2.3-11.1-2.4-16.7-.4-28.1 7.4-42.3 47.1-72 89.1-66.6 22.3 2.8 35 10.8 64.4 40.5l12.5 12.6h-27c-29.5 0-30.3.1-32.3 5.8-1.4 4.1.9 8.9 5.1 10.7 4.9 2 73.4 2.1 78.3 0 6.3-2.6 6.5-3.9 6.2-45.4-.3-35.6-.4-37.1-2.4-39.7-2.4-3.3-6-4.5-9.4-3.2z"></path>
  </symbol>
  <symbol xmlns="http://www.w3.org/2000/svg" viewBox="0 0 478.208 478.208" id="search">
    <path d="M4.79 449.285l170.138-170.137C115.169 206.061 125.974 98.369 199.06 38.61s180.779-48.954 240.538 24.132 48.954 180.779-24.132 240.538c-62.953 51.473-153.453 51.473-216.406 0L28.922 473.418c-6.78 6.548-17.584 6.36-24.132-.42-6.387-6.614-6.387-17.099 0-23.713zm302.2-141.534c75.37-.085 136.449-61.163 136.533-136.533 0-75.405-61.128-136.533-136.533-136.533S170.457 95.813 170.457 171.218s61.128 136.533 136.533 136.533z" data-original="#000000" xmlns="http://www.w3.org/2000/svg"></path>
  </symbol>
  <symbol xmlns="http://www.w3.org/2000/svg" viewBox="0 0 24 24" id="settings">
    <path d="M13.12 24h-2.24a1.498 1.498 0 01-1.486-1.32l-.239-1.876a9.45 9.45 0 01-1.374-.569l-1.494 1.161a1.492 1.492 0 01-1.985-.126l-1.575-1.575a1.488 1.488 0 01-.122-1.979l1.161-1.495a9.232 9.232 0 01-.569-1.374l-1.88-.239A1.501 1.501 0 010 13.12v-2.24c0-.757.567-1.396 1.32-1.486l1.876-.239a9.45 9.45 0 01.569-1.374l-1.16-1.494a1.49 1.49 0 01.127-1.986l1.575-1.575a1.489 1.489 0 011.979-.122L7.78 3.766a9.416 9.416 0 011.375-.569l.239-1.88C9.484.567 10.123 0 10.88 0h2.24c.757 0 1.396.567 1.486 1.32l.239 1.876c.478.155.938.346 1.375.569l1.494-1.161a1.49 1.49 0 011.985.127l1.575 1.575c.537.521.591 1.374.122 1.979L20.235 7.78c.224.437.415.897.569 1.374l1.88.239A1.5 1.5 0 0124 10.88v2.24c0 .757-.567 1.396-1.32 1.486l-1.876.239a9.45 9.45 0 01-.569 1.374l1.161 1.494a1.49 1.49 0 01-.127 1.985l-1.575 1.575a1.487 1.487 0 01-1.979.122l-1.495-1.161a9.232 9.232 0 01-1.374.569l-.239 1.88A1.5 1.5 0 0113.12 24zm-5.39-4.86c.083 0 .168.021.244.063a8.393 8.393 0 001.774.736.5.5 0 01.358.417l.28 2.2c.03.251.247.444.494.444h2.24a.504.504 0 00.493-.439l.281-2.204a.5.5 0 01.358-.417 8.393 8.393 0 001.774-.736.499.499 0 01.55.042l1.75 1.36a.492.492 0 00.655-.034l1.585-1.585a.495.495 0 00.039-.66l-1.36-1.75a.5.5 0 01-.042-.55 8.393 8.393 0 00.736-1.774.5.5 0 01.417-.358l2.2-.28A.507.507 0 0023 13.12v-2.24a.504.504 0 00-.439-.493l-2.204-.281a.5.5 0 01-.417-.358 8.393 8.393 0 00-.736-1.774.497.497 0 01.042-.55l1.36-1.75a.49.49 0 00-.033-.654l-1.585-1.585a.492.492 0 00-.66-.039l-1.75 1.36a.5.5 0 01-.551.042 8.359 8.359 0 00-1.774-.736.5.5 0 01-.358-.417l-.28-2.2A.507.507 0 0013.12 1h-2.24a.504.504 0 00-.493.439l-.281 2.204a.502.502 0 01-.358.418 8.356 8.356 0 00-1.774.735.5.5 0 01-.551-.041l-1.75-1.36a.49.49 0 00-.654.033L3.434 5.014a.495.495 0 00-.039.66l1.36 1.75a.5.5 0 01.042.55 8.341 8.341 0 00-.736 1.774.5.5 0 01-.417.358l-2.2.28A.505.505 0 001 10.88v2.24c0 .247.193.464.439.493l2.204.281a.5.5 0 01.417.358c.18.626.428 1.223.736 1.774a.497.497 0 01-.042.55l-1.36 1.75a.49.49 0 00.033.654l1.585 1.585a.494.494 0 00.66.039l1.75-1.36a.515.515 0 01.308-.104z"></path>
    <path d="M12 17c-2.757 0-5-2.243-5-5s2.243-5 5-5 5 2.243 5 5-2.243 5-5 5zm0-9c-2.206 0-4 1.794-4 4s1.794 4 4 4 4-1.794 4-4-1.794-4-4-4z"></path>
  </symbol>
  <symbol xmlns="http://www.w3.org/2000/svg" viewBox="0 0 512 512" id="strikethrough">
    <path d="M274.851 236l-9.084-4.735C216.654 205.665 176 179.623 176 120c0-44.112 35.888-80 80-80s80 35.888 80 80v20h40v-20C376 53.832 322.168 0 256 0S136 53.832 136 120c0 37.679 11.893 68.705 36.358 94.851 7.336 7.839 15.458 14.819 23.947 21.149H0v40h512v-40H274.851zm105.35 80h-46.259C345.914 332.251 353 352.312 353 374c0 54.038-43.962 98-98 98s-98-43.962-98-98v-20h-40v20c0 76.093 61.907 138 138 138s138-61.907 138-138c0-20.706-4.593-40.356-12.799-58z"></path>
  </symbol>
  <symbol xmlns="http://www.w3.org/2000/svg" viewBox="0 0 6.241 6.241" id="underline">
    <path d="M4.46 4.808c-.341.299-.785.448-1.334.448-.541 0-.98-.15-1.314-.45-.336-.3-.504-.731-.504-1.293V0h.422v3.51c0 .441.129.782.387 1.023.258.24.594.36 1.01.36.422 0 .766-.119 1.029-.358.266-.24.398-.582.398-1.024V0h.418v3.512c0 .565-.17.996-.512 1.296zM1.201 6.241v-.487h3.84v.486h-3.84v.001z"></path>
  </symbol>
  <symbol xmlns="http://www.w3.org/2000/svg" viewBox="0 0 100 125" id="undo">
    <path d="M84.3 23.1c-1.7-4.1-4.1-7.7-7.2-10.9l-.4-.4c-3.1-3.1-6.8-5.6-10.9-7.2-3.9-1.6-8.1-2.4-12.3-2.4s-8.4.8-12.4 2.4c-4.1 1.7-7.7 4.1-10.9 7.2L20.1 22V5c0-1.7-1.4-3-3-3-1.7 0-3 1.4-3 3v24.3c0 1.7 1.4 3 3 3h24.3c1.7 0 3-1.4 3-3 0-1.7-1.4-3-3-3h-17l10.2-10.2C45 5.6 61.9 5.6 72.4 16.1l.4.4c10.4 10.4 10.4 27.4 0 37.8L35.3 91.8c-1.2 1.2-1.2 3.1 0 4.3 1.2 1.2 3.1 1.2 4.3 0l37.5-37.5c3.1-3.1 5.6-6.8 7.2-10.9 1.6-3.9 2.4-8.1 2.4-12.3s-.8-8.4-2.4-12.3z"></path>
  </symbol>
  <symbol xmlns="http://www.w3.org/2000/svg" viewBox="0 0 281.332 281.332" id="bold">
    <path d="M198.102 134.449c15.233-11.431 28.497-29.829 28.497-59.239v-.753c0-18.694-6.274-34.93-18.649-48.258a8.073 8.073 0 00-.181-.189C191.021 8.994 165.96 0 135.294 0H49.656a9 9 0 00-9 9v263.332a9 9 0 009 9h90.331c29.385 0 54.297-7.214 72.043-20.863 18.741-14.414 28.647-35.157 28.647-59.988v-.753c0-29.502-14.634-51.788-42.575-65.279zm-57.393 102.175H86.813v-74.919h48.842c19.735 0 35.34 3.551 45.129 10.27 8.757 6.011 13.015 14.474 13.015 25.872v.752c0 34.32-37.128 38.025-53.09 38.025zM130.58 117.372H86.813V44.709h45.955c29.839 0 46.952 12.351 46.952 33.886v.752c-.001 33.085-30.788 38.025-49.14 38.025z"></path>
  </symbol>
  <symbol xmlns="http://www.w3.org/2000/svg" viewBox="0 0 120 89" id="bullet-list">
    <title></title>
    <title>background</title>
    <path fill="none" d="M-1-1h122v91H-1z"></path>
    <title>Layer 1</title>
    <path d="M0 3.96h10.04V14H0z"></path>
    <path stroke="null" d="M26.134 3.96h94.147V14H26.134z"></path>
    <path d="M0 26.98h10.04v10.04H0z"></path>
    <path stroke="null" d="M26.189 26.98h93.979v10.04H26.189z"></path>
    <path d="M0 50.01h10.04v10.04H0z"></path>
    <path stroke="null" d="M26.36 50.01H120v10.04H26.36zm-.003 23.95H120V84H26.357z"></path>
    <path d="M0 73.96h10.04V84H0z"></path>
  </symbol>
  <symbol xmlns="http://www.w3.org/2000/svg" viewBox="0 0 512.001 512.001" id="close">
    <path d="M284.286 256.002L506.143 34.144c7.811-7.811 7.811-20.475 0-28.285-7.811-7.81-20.475-7.811-28.285 0L256 227.717 34.143 5.859c-7.811-7.811-20.475-7.811-28.285 0-7.81 7.811-7.811 20.475 0 28.285l221.857 221.857L5.858 477.859c-7.811 7.811-7.811 20.475 0 28.285a19.938 19.938 0 0014.143 5.857 19.94 19.94 0 0014.143-5.857L256 284.287l221.857 221.857c3.905 3.905 9.024 5.857 14.143 5.857s10.237-1.952 14.143-5.857c7.811-7.811 7.811-20.475 0-28.285L284.286 256.002z"></path>
  </symbol>
  <symbol xmlns="http://www.w3.org/2000/svg" viewBox="0 0 426.667 426.667" id="copy">
    <path d="M383.168 113.227a10.678 10.678 0 00-2.304-3.435L274.197 3.125A10.739 10.739 0 00266.666 0H96c-5.891 0-10.667 4.776-10.667 10.667v32h-32c-5.891 0-10.667 4.776-10.667 10.667V416c0 5.891 4.776 10.667 10.667 10.667h277.333c5.891 0 10.667-4.776 10.667-10.667v-32h32c5.891 0 10.667-4.776 10.667-10.667v-256a10.664 10.664 0 00-.832-4.106zM277.333 36.416l70.251 70.251h-70.251V36.416zM320 405.333H64V64h21.333v309.333C85.333 379.224 90.109 384 96 384h224v21.333zm42.667-42.666h-256V21.333H256v96c0 5.891 4.776 10.667 10.667 10.667h96v234.667z"></path>
  </symbol>
  <symbol xmlns="http://www.w3.org/2000/svg" viewBox="0 0 64 64" id="cut">
    <path d="M43 48c-.442 0-.872.046-1.291.124L35.58 34.472 44 5l-1-3-11 24.5L21 2l-1 3 8.421 29.472-6.129 13.652A7.056 7.056 0 0021 48a7 7 0 107 7 6.99 6.99 0 00-2.99-5.733l3.094-5.745A6.69 6.69 0 0132 40.317a6.68 6.68 0 013.896 3.205l3.094 5.745A6.99 6.99 0 0036 55a7 7 0 107-7zM21 59a4 4 0 110-8 4 4 0 010 8zm12-24v2h-2v-2zm10 24a4 4 0 110-8 4 4 0 010 8z"></path>
  </symbol>
  <symbol xmlns="http://www.w3.org/2000/svg" viewBox="0 0 512 512" id="delete">
    <path d="M353.574 176.526l-40.078-1.47-8.689 237.284 40.078 1.464zm-117.626-.735h40.104v237.285h-40.104zm-28.762 236.543l-8.689-237.285-40.078 1.471 8.69 237.284z"></path>
    <path d="M17.379 76.867v40.104h41.789L92.32 493.706c.909 10.353 9.579 18.294 19.972 18.294h286.74c10.394 0 19.07-7.947 19.972-18.301l33.153-376.728h42.464V76.867H17.379zm363.286 395.029H130.654L99.426 116.971H411.9l-31.235 354.925z"></path>
    <path d="M321.504 0H190.496c-18.428 0-33.42 14.992-33.42 33.42v63.499h40.104V40.104h117.64v56.815h40.104V33.42c0-18.428-14.992-33.42-33.42-33.42z"></path>
  </symbol>
  <symbol xmlns="http://www.w3.org/2000/svg" viewBox="0 0 512 392" id="image">
    <title>background</title>
    <path fill="none" d="M-1-1h514v394H-1z"></path>
    <title>Layer 1</title>
    <g stroke="null">
      <path d="M500.433 349.88H13.78c-6.82 0-12.351-4.939-12.351-11.03V53.148c0-6.091 5.53-11.031 12.351-11.031h486.652c6.82 0 12.351 4.94 12.351 11.031V338.85c0 6.091-5.53 11.03-12.351 11.03zm-474.3-22.061H488.08V64.179H26.133v263.64z"></path>
      <path d="M304.054 349.883c-4.353 0-8.573-2.06-10.826-5.704l-72.508-117.37L20.715 347.978c-5.643 3.422-13.326 2.107-17.156-2.935S1.201 333.14 6.846 329.72l211.211-127.96c2.876-1.741 6.436-2.322 9.814-1.598 3.377.723 6.257 2.683 7.936 5.399l79.05 127.959c3.295 5.334 1.124 12.044-4.848 14.988a13.463 13.463 0 01-5.955 1.374z"></path>
      <path d="M500.435 349.88c-3.31 0-6.61-1.18-9.043-3.514l-126.08-120.94-93.72 58.486c-5.588 3.49-13.29 2.27-17.199-2.724-3.907-4.993-2.542-11.87 3.051-15.36l102.518-63.98c5.046-3.149 11.918-2.5 16.115 1.525l133.397 127.96c4.648 4.458 4.369 11.438-.624 15.59-2.38 1.978-5.402 2.958-8.415 2.958zM244.138 170.26c-24.178 0-43.848-17.568-43.848-39.16s19.67-39.16 43.848-39.16 43.848 17.566 43.848 39.16-19.67 39.16-43.848 39.16zm0-56.259c-10.557 0-19.145 7.67-19.145 17.098s8.588 17.098 19.145 17.098 19.145-7.67 19.145-17.098-8.588-17.098-19.145-17.098z"></path>
    </g>
  </symbol>
  <symbol xmlns="http://www.w3.org/2000/svg" viewBox="0 0 330.003 330.003" id="italic">
    <path d="M255.001 0h-120c-8.284 0-15 6.716-15 15s6.716 15 15 15h41.703l-54 270H75.001c-8.284 0-15 6.716-15 15s6.716 15 15 15h59.956c.02 0 .04.003.059.003.023 0 .045-.003.066-.003H195c8.284 0 15-6.716 15-15s-6.716-15-15-15h-41.703l54-270H255c8.284 0 15-6.716 15-15s-6.714-15-14.999-15z"></path>
  </symbol>
  <symbol xmlns="http://www.w3.org/2000/svg" viewBox="0 0 482.239 482.239" id="left-arrow">
    <path d="M206.812 34.446L0 241.119l206.743 206.674 24.353-24.284L65.929 258.342h416.31v-34.445H65.929L231.165 58.661z"></path>
  </symbol>
</svg>